<?xml version="1.0" standalone="yes"?>

<svg version="1.1" viewBox="0.0 0.0 449.8923884514436 100.0" fill="none" stroke="none" stroke-linecap="square" stroke-miterlimit="10" xmlns="http://www.w3.org/2000/svg" xmlns:xlink="http://www.w3.org/1999/xlink"><clipPath id="p.0"><path d="m0 0l449.8924 0l0 100.0l-449.8924 0l0 -100.0z" clip-rule="nonzero"></path></clipPath><g clip-path="url(#p.0)"><path fill="#000000" fill-opacity="0.0" d="m0 0l449.8924 0l0 100.0l-449.8924 0z" fill-rule="evenodd"></path><path fill="#000000" fill-opacity="0.0" d="m-34.156116 -273.97665l487.11813 0l0 94.36218l-487.11813 0z" fill-rule="evenodd"></path><path fill="#4682b4" d="m-17.156118 -206.16167l0 -31.3125l-3.53125 0q-0.9375 0 -1.34375 -0.359375q-0.40625 -0.359375 -0.40625 -0.953125q0 -0.59375 0.40625 -0.953125q0.40625 -0.359375 1.34375 -0.359375l16.5 0q4.90625 0 7.984375 2.828125q3.0781252 2.828125 3.0781252 6.640625q0 4.8125 -5.15625 7.78125q4.09375 1.46875 6.0 3.90625q1.9062495 2.4375 1.9062495 5.375q0 2.625 -1.25 4.796875q-1.2499995 2.171875 -3.8281245 3.703125q-2.5781252 1.53125 -5.609375 1.53125l-19.625 0q-0.9375 0 -1.34375 -0.375q-0.40625 -0.375 -0.40625 -0.9375q0 -0.59375 0.40625 -0.953125q0.40625 -0.359375 1.34375 -0.359375l3.53125 0zm2.625 -17.6875l9.28125 0q2.9687498 0 5.4375 -1.09375q1.90625 -0.875 2.96875 -2.53125q1.0625002 -1.65625 1.0625002 -3.375q0 -2.46875 -2.3125002 -4.546875q-2.3125 -2.078125 -6.03125 -2.078125l-10.40625 0l0 13.625zm0 17.6875l13.28125 0q2.53125 0 4.40625 -1.125q1.8750002 -1.125 2.8437502 -2.78125q0.96875 -1.65625 0.96875 -3.4375q0 -2.0 -1.390625 -3.875q-1.390625 -1.875 -3.8593752 -2.84375q-2.46875 -0.96875 -6.8125 -0.96875l-9.4375 0l0 15.03125zm61.1875 -10.28125l-26.750002 0q0.6875 5.09375 4.265625 8.203125q3.578125 3.109375 8.859377 3.109375q2.9375 0 6.15625 -0.96875q3.21875 -0.96875 5.25 -2.5625q0.59375 -0.46875 1.03125 -0.46875q0.5 0 0.875 0.390625q0.375 0.390625 0.375 0.921875q0 0.53125 -0.5 1.03125q-1.5 1.5625 -5.328125 2.921875q-3.828125 1.359375 -7.859375 1.359375q-6.750002 0 -11.265627 -4.421875q-4.515625 -4.421875 -4.515625 -10.703125q0 -5.71875 4.234375 -9.8125q4.234375 -4.09375 10.484375 -4.09375q6.437502 0 10.593752 4.203125q4.15625 4.203125 4.09375 10.890625zm-2.65625 -2.65625q-0.78125 -4.34375 -4.109375 -7.0625q-3.328125 -2.71875 -7.921877 -2.71875q-4.59375 0 -7.90625 2.6875q-3.3125 2.6875 -4.125 7.09375l24.062502 0zm18.375 -11.5l0 3.96875q2.7499962 -2.78125 4.968746 -3.84375q2.21875 -1.0625 5.0 -1.0625q3.0 0 5.46875 1.28125q1.75 0.9375 3.171875 3.109375q1.421875 2.171875 1.421875 4.453125l0 16.53125l2.21875 0q0.9375 0 1.34375 0.359375q0.40625 0.359375 0.40625 0.953125q0 0.5625 -0.40625 0.9375q-0.40625 0.375 -1.34375 0.375l-7.03125 0q-0.96875 0 -1.375 -0.375q-0.40625 -0.375 -0.40625 -0.9375q0 -0.59375 0.40625 -0.953125q0.40625 -0.359375 1.375 -0.359375l2.1875 0l0 -16.09375q0 -2.78125 -2.03125 -4.703125q-2.03125 -1.921875 -5.4375 -1.921875q-2.59375 0 -4.5 1.046875q-1.90625 1.046875 -5.437496 5.203125l0 16.46875l2.9687462 0q0.9375 0 1.34375 0.359375q0.40625 0.359375 0.40625 0.953125q0 0.5625 -0.40625 0.9375q-0.40625 0.375 -1.34375 0.375l-8.562496 0q-0.9375 0 -1.34375 -0.375q-0.40625 -0.375 -0.40625 -0.9375q0 -0.59375 0.40625 -0.953125q0.40625 -0.359375 1.34375 -0.359375l2.96875 0l0 -21.78125l-2.21875 0q-0.9375 0 -1.34375 -0.375q-0.40625 -0.375 -0.40625 -0.96875q0 -0.5625 0.40625 -0.9375q0.40625 -0.375 1.34375 -0.375l4.84375 0zm86.59375 -6.875l0 31.3125l6.8125 0q0.9375 0 1.34375 0.359375q0.40625 0.359375 0.40625 0.953125q0 0.5625 -0.40625 0.9375q-0.40625 0.375 -1.34375 0.375l-16.28125 0q-0.9375 0 -1.34375 -0.375q-0.40625 -0.375 -0.40625 -0.9375q0 -0.59375 0.40625 -0.953125q0.40625 -0.359375 1.34375 -0.359375l6.8125 0l0 -31.3125l-10.75 0l0 9.09375q0 0.96875 -0.359375 1.375q-0.359375 0.40625 -0.953125 0.40625q-0.5625 0 -0.9375 -0.40625q-0.375 -0.40625 -0.375 -1.375l0 -11.71875l29.40625 0l0 11.71875q0 0.96875 -0.359375 1.375q-0.359375 0.40625 -0.953125 0.40625q-0.59375 0 -0.953125 -0.40625q-0.359375 -0.40625 -0.359375 -1.375l0 -9.09375l-10.75 0zm46.09375 33.9375l0 -3.84375q-5.375 4.875 -11.625 4.875q-3.84375 0 -5.84375 -2.09375q-2.59375 -2.75 -2.59375 -6.40625l0 -16.9375l-3.53125 0q-0.9375 0 -1.34375 -0.375q-0.40625 -0.375 -0.40625 -0.96875q0 -0.5625 0.40625 -0.9375q0.40625 -0.375 1.34375 -0.375l6.15625 0l0 19.59375q0 2.5625 1.625 4.21875q1.625 1.65625 4.0625 1.65625q6.40625 0 11.75 -5.875l0 -16.9375l-4.84375 0q-0.9375 0 -1.34375 -0.375q-0.40625 -0.375 -0.40625 -0.96875q0 -0.5625 0.40625 -0.9375q0.40625 -0.375 1.34375 -0.375l7.46875 0l0 24.4375l2.21875 0q0.9375 0 1.34375 0.359375q0.40625 0.359375 0.40625 0.953125q0 0.5625 -0.40625 0.9375q-0.40625 0.375 -1.34375 0.375l-4.84375 0zm19.53125 -27.0625l0 4.78125q2.34375 -2.84375 5.03125 -4.28125q2.6875 -1.4375 6.34375 -1.4375q3.875 0 7.15625 1.8125q3.28125 1.8125 5.078125 5.046875q1.796875 3.234375 1.796875 6.796875q0 5.65625 -4.046875 9.671875q-4.046875 4.015625 -9.953125 4.015625q-7.03125 0 -11.40625 -5.71875l0 15.8125l6.375 0q0.9375 0 1.34375 0.359375q0.40625 0.359375 0.40625 0.953125q0 0.5625 -0.40625 0.9375q-0.40625 0.375 -1.34375 0.375l-12.53125 0q-0.9375 0 -1.34375 -0.359375q-0.40625 -0.359375 -0.40625 -0.953125q0 -0.59375 0.40625 -0.953125q0.40625 -0.359375 1.34375 -0.359375l3.53125 0l0 -33.84375l-3.53125 0q-0.9375 0 -1.34375 -0.375q-0.40625 -0.375 -0.40625 -0.96875q0 -0.5625 0.40625 -0.9375q0.40625 -0.375 1.34375 -0.375l6.15625 0zm22.75 12.71875q0 -4.53125 -3.296875 -7.765625q-3.296875 -3.234375 -8.046875 -3.234375q-4.78125 0 -8.09375 3.25q-3.3125 3.25 -3.3125 7.75q0 4.53125 3.3125 7.78125q3.3125 3.25 8.09375 3.25q4.71875 0 8.03125 -3.234375q3.3125 -3.234375 3.3125 -7.796875zm15.65625 -12.71875l0 4.78125q2.34375 -2.84375 5.0312347 -4.28125q2.6875 -1.4375 6.34375 -1.4375q3.875 0 7.15625 1.8125q3.28125 1.8125 5.078125 5.046875q1.796875 3.234375 1.796875 6.796875q0 5.65625 -4.046875 9.671875q-4.046875 4.015625 -9.953125 4.015625q-7.03125 0 -11.406235 -5.71875l0 15.8125l6.3749847 0q0.9375 0 1.34375 0.359375q0.40625 0.359375 0.40625 0.953125q0 0.5625 -0.40625 0.9375q-0.40625 0.375 -1.34375 0.375l-12.531235 0q-0.9375 0 -1.34375 -0.359375q-0.40625 -0.359375 -0.40625 -0.953125q0 -0.59375 0.40625 -0.953125q0.40625 -0.359375 1.34375 -0.359375l3.53125 0l0 -33.84375l-3.53125 0q-0.9375 0 -1.34375 -0.375q-0.40625 -0.375 -0.40625 -0.96875q0 -0.5625 0.40625 -0.9375q0.40625 -0.375 1.34375 -0.375l6.15625 0zm22.749985 12.71875q0 -4.53125 -3.296875 -7.765625q-3.296875 -3.234375 -8.046875 -3.234375q-4.78125 0 -8.09375 3.25q-3.3124847 3.25 -3.3124847 7.75q0 4.53125 3.3124847 7.78125q3.3125 3.25 8.09375 3.25q4.71875 0 8.03125 -3.234375q3.3125 -3.234375 3.3125 -7.796875zm39.75 1.4375l-26.75 0q0.6875 5.09375 4.265625 8.203125q3.578125 3.109375 8.859375 3.109375q2.9375 0 6.15625 -0.96875q3.21875 -0.96875 5.25 -2.5625q0.59375 -0.46875 1.03125 -0.46875q0.5 0 0.875 0.390625q0.375 0.390625 0.375 0.921875q0 0.53125 -0.5 1.03125q-1.5 1.5625 -5.328125 2.921875q-3.828125 1.359375 -7.859375 1.359375q-6.75 0 -11.265625 -4.421875q-4.515625 -4.421875 -4.515625 -10.703125q0 -5.71875 4.234375 -9.8125q4.234375 -4.09375 10.484375 -4.09375q6.4375 0 10.59375 4.203125q4.15625 4.203125 4.09375 10.890625zm-2.65625 -2.65625q-0.78125 -4.34375 -4.109375 -7.0625q-3.328125 -2.71875 -7.921875 -2.71875q-4.59375 0 -7.90625 2.6875q-3.3125 2.6875 -4.125 7.09375l24.0625 0zm23.71875 -11.5l0 6.625q5.125 -4.625 7.671875 -5.953125q2.546875 -1.328125 4.703125 -1.328125q2.34375 0 4.359375 1.578125q2.015625 1.578125 2.015625 2.390625q0 0.59375 -0.390625 0.984375q-0.390625 0.390625 -0.984375 0.390625q-0.3125 0 -0.53125 -0.109375q-0.21875 -0.109375 -0.8125 -0.703125q-1.09375 -1.09375 -1.90625 -1.5q-0.8125 -0.40625 -1.59375 -0.40625q-1.71875 0 -4.140625 1.375q-2.421875 1.375 -8.390625 6.71875l0 14.375l11.625 0q0.96875 0 1.375 0.359375q0.40625 0.359375 0.40625 0.953125q0 0.5625 -0.40625 0.9375q-0.40625 0.375 -1.375 0.375l-20.59375 0q-0.9375 0 -1.34375 -0.359375q-0.40625 -0.359375 -0.40625 -0.921875q0 -0.53125 0.390625 -0.890625q0.390625 -0.359375 1.359375 -0.359375l6.34375 0l0 -21.875l-4.84375 0q-0.9375 0 -1.34375 -0.375q-0.40625 -0.375 -0.40625 -0.96875q0 -0.5625 0.390625 -0.9375q0.390625 -0.375 1.359375 -0.375l7.46875 0z" fill-rule="nonzero"></path><path fill="#000000" fill-opacity="0.0" d="m204.82814 -191.77982l266.39368 0l0 44.15747l-266.39368 0z" fill-rule="evenodd"></path><path fill="#4682b4" d="m216.59377 -172.89107l0 1.421875q0.6875 -0.84375 1.484375 -1.265625q0.8125 -0.4375 1.890625 -0.4375q1.15625 0 2.125 0.546875q0.96875 0.53125 1.5 1.5q0.546875 0.953125 0.546875 2.0q0 1.6875 -1.203125 2.890625q-1.203125 1.1875 -2.953125 1.1875q-2.09375 0 -3.390625 -1.703125l0 4.6875l1.890625 0q0.28125 0 0.390625 0.109375q0.125 0.109375 0.125 0.28125q0 0.171875 -0.125 0.28125q-0.109375 0.109375 -0.390625 0.109375l-3.71875 0q-0.28125 0 -0.40625 -0.109375q-0.109375 -0.09375 -0.109375 -0.28125q0 -0.171875 0.109375 -0.28125q0.125 -0.109375 0.40625 -0.109375l1.046875 0l0 -10.046875l-1.046875 0q-0.28125 0 -0.40625 -0.109375q-0.109375 -0.109375 -0.109375 -0.28125q0 -0.171875 0.109375 -0.28125q0.125 -0.109375 0.40625 -0.109375l1.828125 0zm6.75 3.765625q0 -1.34375 -0.984375 -2.296875q-0.96875 -0.96875 -2.375 -0.96875q-1.421875 0 -2.40625 0.96875q-0.984375 0.96875 -0.984375 2.296875q0 1.359375 0.984375 2.328125q0.984375 0.953125 2.40625 0.953125q1.390625 0 2.375 -0.953125q0.984375 -0.96875 0.984375 -2.328125zm6.6518555 -3.765625l0 1.96875q1.53125 -1.375 2.28125 -1.765625q0.75 -0.40625 1.390625 -0.40625q0.703125 0 1.296875 0.46875q0.59375 0.46875 0.59375 0.71875q0 0.171875 -0.109375 0.296875q-0.109375 0.109375 -0.296875 0.109375q-0.09375 0 -0.15625 -0.03125q-0.0625 -0.03125 -0.234375 -0.21875q-0.328125 -0.3125 -0.578125 -0.4375q-0.234375 -0.125 -0.46875 -0.125q-0.5 0 -1.21875 0.40625q-0.71875 0.40625 -2.5 2.0l0 4.265625l3.453125 0q0.28125 0 0.40625 0.109375q0.125 0.109375 0.125 0.28125q0 0.171875 -0.125 0.28125q-0.125 0.109375 -0.40625 0.109375l-6.109375 0q-0.28125 0 -0.40625 -0.109375q-0.109375 -0.109375 -0.109375 -0.265625q0 -0.15625 0.109375 -0.265625q0.109375 -0.109375 0.40625 -0.109375l1.875 0l0 -6.5l-1.4375 0q-0.28125 0 -0.40625 -0.109375q-0.109375 -0.109375 -0.109375 -0.28125q0 -0.171875 0.109375 -0.28125q0.125 -0.109375 0.40625 -0.109375l2.21875 0zm16.69873 4.03125q0 1.78125 -1.28125 3.046875q-1.28125 1.265625 -3.078125 1.265625q-1.8125 0 -3.09375 -1.265625q-1.265625 -1.28125 -1.265625 -3.046875q0 -1.78125 1.265625 -3.046875q1.28125 -1.265625 3.09375 -1.265625q1.796875 0 3.078125 1.265625q1.28125 1.25 1.28125 3.046875zm-0.796875 0q0 -1.46875 -1.046875 -2.5q-1.03125 -1.03125 -2.515625 -1.03125q-1.484375 0 -2.53125 1.046875q-1.046875 1.03125 -1.046875 2.484375q0 1.453125 1.046875 2.5q1.046875 1.03125 2.53125 1.03125q1.484375 0 2.515625 -1.03125q1.046875 -1.046875 1.046875 -2.5zm8.94873 -8.03125l0 2.015625l-1.140625 0l0 -2.015625l1.140625 0zm0.046875 4.78125l-4.625 0q-0.28125 0 -0.40625 -0.109375q-0.109375 -0.109375 -0.109375 -0.28125q0 -0.171875 0.109375 -0.28125q0.125 -0.109375 0.40625 -0.109375l5.40625 0l0 8.578125q0 1.0 -0.40625 1.65625q-0.40625 0.671875 -1.21875 1.09375q-0.5625 0.28125 -1.34375 0.28125l-2.484375 0q-0.28125 0 -0.40625 -0.109375q-0.109375 -0.09375 -0.109375 -0.28125q0 -0.171875 0.109375 -0.28125q0.125 -0.109375 0.40625 -0.109375l2.453125 0q1.0 0 1.609375 -0.65625q0.609375 -0.640625 0.609375 -1.59375l0 -7.796875zm14.46434 3.421875l-7.953125 0q0.21875 1.515625 1.28125 2.4375q1.0625 0.921875 2.625 0.921875q0.875 0 1.828125 -0.28125q0.953125 -0.296875 1.5625 -0.765625q0.171875 -0.140625 0.296875 -0.140625q0.15625 0 0.265625 0.125q0.109375 0.109375 0.109375 0.265625q0 0.15625 -0.15625 0.296875q-0.4375 0.46875 -1.578125 0.875q-1.140625 0.40625 -2.328125 0.40625q-2.0 0 -3.34375 -1.3125q-1.34375 -1.3125 -1.34375 -3.1875q0 -1.6875 1.25 -2.90625q1.265625 -1.21875 3.125 -1.21875q1.90625 0 3.140625 1.25q1.234375 1.25 1.21875 3.234375zm-0.796875 -0.796875q-0.234375 -1.28125 -1.21875 -2.09375q-0.984375 -0.8125 -2.34375 -0.8125q-1.375 0 -2.359375 0.8125q-0.96875 0.796875 -1.21875 2.09375l7.140625 0zm11.22998 -2.625l0 -0.25q0 -0.296875 0.109375 -0.40625q0.109375 -0.125 0.28125 -0.125q0.171875 0 0.28125 0.125q0.109375 0.109375 0.109375 0.40625l0 1.75q0 0.296875 -0.109375 0.421875q-0.109375 0.109375 -0.28125 0.109375q-0.15625 0 -0.265625 -0.09375q-0.109375 -0.109375 -0.125 -0.359375q-0.0625 -0.671875 -0.875 -1.265625q-0.796875 -0.59375 -2.171875 -0.59375q-1.734375 0 -2.640625 1.09375q-0.90625 1.078125 -0.90625 2.484375q0 1.515625 0.984375 2.5q1.0 0.984375 2.578125 0.984375q0.921875 0 1.859375 -0.328125q0.9375 -0.34375 1.703125 -1.09375q0.1875 -0.171875 0.34375 -0.171875q0.15625 0 0.265625 0.109375q0.109375 0.09375 0.109375 0.25q0 0.40625 -0.9375 1.015625q-1.515625 1.0 -3.375 1.0q-1.875 0 -3.09375 -1.203125q-1.203125 -1.203125 -1.203125 -3.046875q0 -1.890625 1.234375 -3.125q1.234375 -1.25 3.125 -1.25q1.78125 0 3.0 1.0625zm6.5424805 -0.78125l4.234375 0q0.28125 0 0.390625 0.109375q0.125 0.109375 0.125 0.28125q0 0.171875 -0.125 0.28125q-0.109375 0.109375 -0.390625 0.109375l-4.234375 0l0 5.1875q0 0.6875 0.546875 1.140625q0.546875 0.453125 1.59375 0.453125q0.78125 0 1.703125 -0.234375q0.921875 -0.25 1.4375 -0.546875q0.1875 -0.109375 0.296875 -0.109375q0.15625 0 0.265625 0.125q0.109375 0.109375 0.109375 0.265625q0 0.140625 -0.125 0.25q-0.296875 0.3125 -1.4375 0.671875q-1.140625 0.359375 -2.1875 0.359375q-1.375 0 -2.1875 -0.640625q-0.796875 -0.640625 -0.796875 -1.734375l0 -5.1875l-1.4375 0q-0.28125 0 -0.40625 -0.109375q-0.109375 -0.109375 -0.109375 -0.28125q0 -0.171875 0.109375 -0.28125q0.125 -0.109375 0.40625 -0.109375l1.4375 0l0 -2.296875q0 -0.28125 0.109375 -0.40625q0.109375 -0.125 0.28125 -0.125q0.171875 0 0.28125 0.125q0.109375 0.125 0.109375 0.40625l0 2.296875zm15.589355 0.5q0 -0.265625 0.109375 -0.375q0.109375 -0.125 0.28125 -0.125q0.171875 0 0.28125 0.125q0.109375 0.109375 0.109375 0.40625l0 1.328125q0 0.28125 -0.109375 0.40625q-0.109375 0.109375 -0.28125 0.109375q-0.171875 0 -0.28125 -0.09375q-0.09375 -0.109375 -0.109375 -0.34375q-0.0625 -0.546875 -0.578125 -0.90625q-0.765625 -0.53125 -2.015625 -0.53125q-1.3125 0 -2.03125 0.53125q-0.546875 0.40625 -0.546875 0.890625q0 0.5625 0.640625 0.9375q0.453125 0.25 1.703125 0.390625q1.609375 0.171875 2.25 0.40625q0.890625 0.328125 1.328125 0.90625q0.453125 0.5625 0.453125 1.234375q0 0.984375 -0.953125 1.765625q-0.953125 0.78125 -2.8125 0.78125q-1.84375 0 -3.015625 -0.9375q0 0.3125 -0.046875 0.40625q-0.03125 0.09375 -0.125 0.15625q-0.09375 0.0625 -0.21875 0.0625q-0.171875 0 -0.28125 -0.109375q-0.109375 -0.125 -0.109375 -0.40625l0 -1.609375q0 -0.28125 0.109375 -0.390625q0.109375 -0.125 0.28125 -0.125q0.171875 0 0.28125 0.125q0.109375 0.109375 0.109375 0.296875q0 0.421875 0.21875 0.71875q0.328125 0.4375 1.03125 0.734375q0.71875 0.296875 1.75 0.296875q1.515625 0 2.25 -0.5625q0.75 -0.578125 0.75 -1.203125q0 -0.71875 -0.75 -1.15625q-0.765625 -0.4375 -2.21875 -0.578125q-1.453125 -0.15625 -2.078125 -0.390625q-0.625 -0.25 -0.984375 -0.734375q-0.359375 -0.484375 -0.359375 -1.03125q0 -1.015625 0.984375 -1.59375q0.984375 -0.59375 2.359375 -0.59375q1.609375 0 2.625 0.78125zm22.45996 7.53125l0 -1.125q-1.6875 1.4375 -3.625 1.4375q-1.40625 0 -2.1875 -0.703125q-0.78125 -0.71875 -0.78125 -1.75q0 -1.140625 1.03125 -1.984375q1.046875 -0.84375 3.03125 -0.84375q0.546875 0 1.171875 0.078125q0.625 0.0625 1.359375 0.21875l0 -1.265625q0 -0.640625 -0.59375 -1.109375q-0.59375 -0.484375 -1.78125 -0.484375q-0.90625 0 -2.546875 0.53125q-0.296875 0.09375 -0.375 0.09375q-0.15625 0 -0.265625 -0.109375q-0.109375 -0.109375 -0.109375 -0.28125q0 -0.15625 0.09375 -0.25q0.140625 -0.140625 1.0625 -0.375q1.4375 -0.390625 2.1875 -0.390625q1.46875 0 2.296875 0.734375q0.828125 0.71875 0.828125 1.640625l0 5.15625l1.03125 0q0.296875 0 0.40625 0.109375q0.125 0.109375 0.125 0.28125q0 0.171875 -0.125 0.28125q-0.109375 0.109375 -0.40625 0.109375l-1.828125 0zm0 -3.875q-0.546875 -0.15625 -1.15625 -0.234375q-0.609375 -0.078125 -1.28125 -0.078125q-1.703125 0 -2.65625 0.734375q-0.734375 0.546875 -0.734375 1.3125q0 0.703125 0.546875 1.1875q0.5625 0.484375 1.625 0.484375q1.0 0 1.859375 -0.40625q0.875 -0.40625 1.796875 -1.28125l0 -1.71875zm6.6518555 -4.15625l0 1.171875q0.8125 -0.828125 1.46875 -1.140625q0.65625 -0.3125 1.484375 -0.3125q0.890625 0 1.625 0.375q0.515625 0.28125 0.9375 0.9375q0.421875 0.640625 0.421875 1.3125l0 4.90625l0.65625 0q0.28125 0 0.40625 0.109375q0.125 0.109375 0.125 0.28125q0 0.171875 -0.125 0.28125q-0.125 0.109375 -0.40625 0.109375l-2.078125 0q-0.296875 0 -0.421875 -0.109375q-0.109375 -0.109375 -0.109375 -0.28125q0 -0.171875 0.109375 -0.28125q0.125 -0.109375 0.421875 -0.109375l0.640625 0l0 -4.78125q0 -0.828125 -0.609375 -1.390625q-0.59375 -0.578125 -1.609375 -0.578125q-0.765625 0 -1.328125 0.3125q-0.5625 0.3125 -1.609375 1.546875l0 4.890625l0.875 0q0.28125 0 0.390625 0.109375q0.125 0.109375 0.125 0.28125q0 0.171875 -0.125 0.28125q-0.109375 0.109375 -0.390625 0.109375l-2.546875 0q-0.265625 0 -0.390625 -0.109375q-0.125 -0.109375 -0.125 -0.28125q0 -0.171875 0.125 -0.28125q0.125 -0.109375 0.390625 -0.109375l0.890625 0l0 -6.46875l-0.65625 0q-0.28125 0 -0.40625 -0.109375q-0.125 -0.109375 -0.125 -0.28125q0 -0.171875 0.125 -0.28125q0.125 -0.109375 0.40625 -0.109375l1.4375 0zm17.72998 -3.609375l0 10.859375l1.046875 0q0.28125 0 0.40625 0.109375q0.125 0.109375 0.125 0.28125q0 0.171875 -0.125 0.28125q-0.125 0.109375 -0.40625 0.109375l-1.828125 0l0 -1.546875q-1.359375 1.859375 -3.453125 1.859375q-1.046875 0 -2.015625 -0.5625q-0.96875 -0.5625 -1.53125 -1.59375q-0.5625 -1.046875 -0.5625 -2.15625q0 -1.109375 0.5625 -2.140625q0.5625 -1.046875 1.53125 -1.609375q0.96875 -0.5625 2.03125 -0.5625q2.046875 0 3.4375 1.859375l0 -4.40625l-1.046875 0q-0.28125 0 -0.40625 -0.109375q-0.125 -0.109375 -0.125 -0.28125q0 -0.171875 0.125 -0.28125q0.125 -0.109375 0.40625 -0.109375l1.828125 0zm-0.78125 7.640625q0 -1.484375 -1.015625 -2.5q-1.0 -1.03125 -2.375 -1.03125q-1.390625 0 -2.390625 1.03125q-1.0 1.015625 -1.0 2.5q0 1.46875 1.0 2.5q1.0 1.03125 2.390625 1.03125q1.375 0 2.375 -1.03125q1.015625 -1.03125 1.015625 -2.5zm20.163086 -8.03125l0 2.015625l-1.15625 0l0 -2.015625l1.15625 0zm0.015625 4.0l0 7.25l3.0625 0q0.296875 0 0.40625 0.109375q0.125 0.109375 0.125 0.28125q0 0.171875 -0.125 0.28125q-0.109375 0.109375 -0.40625 0.109375l-6.90625 0q-0.265625 0 -0.390625 -0.109375q-0.125 -0.109375 -0.125 -0.28125q0 -0.171875 0.125 -0.28125q0.125 -0.109375 0.390625 -0.109375l3.0625 0l0 -6.46875l-2.265625 0q-0.28125 0 -0.40625 -0.109375q-0.125 -0.109375 -0.125 -0.28125q0 -0.171875 0.125 -0.28125q0.125 -0.109375 0.40625 -0.109375l3.046875 0zm14.808105 -3.609375l0 10.859375l1.046875 0q0.28125 0 0.40625 0.109375q0.125 0.109375 0.125 0.28125q0 0.171875 -0.125 0.28125q-0.125 0.109375 -0.40625 0.109375l-1.828125 0l0 -1.546875q-1.359375 1.859375 -3.453125 1.859375q-1.046875 0 -2.015625 -0.5625q-0.96875 -0.5625 -1.53125 -1.59375q-0.5625 -1.046875 -0.5625 -2.15625q0 -1.109375 0.5625 -2.140625q0.5625 -1.046875 1.53125 -1.609375q0.96875 -0.5625 2.03125 -0.5625q2.046875 0 3.4375 1.859375l0 -4.40625l-1.046875 0q-0.28125 0 -0.40625 -0.109375q-0.125 -0.109375 -0.125 -0.28125q0 -0.171875 0.125 -0.28125q0.125 -0.109375 0.40625 -0.109375l1.828125 0zm-0.78125 7.640625q0 -1.484375 -1.015625 -2.5q-1.0 -1.03125 -2.375 -1.03125q-1.390625 0 -2.390625 1.03125q-1.0 1.015625 -1.0 2.5q0 1.46875 1.0 2.5q1.0 1.03125 2.390625 1.03125q1.375 0 2.375 -1.03125q1.015625 -1.03125 1.015625 -2.5zm12.589355 0.171875l-7.953125 0q0.21875 1.515625 1.28125 2.4375q1.0625 0.921875 2.625 0.921875q0.875 0 1.828125 -0.28125q0.953125 -0.296875 1.5625 -0.765625q0.171875 -0.140625 0.296875 -0.140625q0.15625 0 0.265625 0.125q0.109375 0.109375 0.109375 0.265625q0 0.15625 -0.15625 0.296875q-0.4375 0.46875 -1.578125 0.875q-1.140625 0.40625 -2.328125 0.40625q-2.0 0 -3.34375 -1.3125q-1.34375 -1.3125 -1.34375 -3.1875q0 -1.6875 1.25 -2.90625q1.265625 -1.21875 3.125 -1.21875q1.90625 0 3.140625 1.25q1.234375 1.25 1.21875 3.234375zm-0.796875 -0.796875q-0.234375 -1.28125 -1.21875 -2.09375q-0.984375 -0.8125 -2.34375 -0.8125q-1.375 0 -2.359375 0.8125q-0.96875 0.796875 -1.21875 2.09375l7.140625 0zm10.214355 4.625l0 -1.125q-1.6875 1.4375 -3.625 1.4375q-1.40625 0 -2.1875 -0.703125q-0.78125 -0.71875 -0.78125 -1.75q0 -1.140625 1.03125 -1.984375q1.046875 -0.84375 3.03125 -0.84375q0.546875 0 1.171875 0.078125q0.625 0.0625 1.359375 0.21875l0 -1.265625q0 -0.640625 -0.59375 -1.109375q-0.59375 -0.484375 -1.78125 -0.484375q-0.90625 0 -2.546875 0.53125q-0.296875 0.09375 -0.375 0.09375q-0.15625 0 -0.265625 -0.109375q-0.109375 -0.109375 -0.109375 -0.28125q0 -0.15625 0.09375 -0.25q0.140625 -0.140625 1.0625 -0.375q1.4375 -0.390625 2.1875 -0.390625q1.46875 0 2.296875 0.734375q0.828125 0.71875 0.828125 1.640625l0 5.15625l1.03125 0q0.296875 0 0.40625 0.109375q0.125 0.109375 0.125 0.28125q0 0.171875 -0.125 0.28125q-0.109375 0.109375 -0.40625 0.109375l-1.828125 0zm0 -3.875q-0.546875 -0.15625 -1.15625 -0.234375q-0.609375 -0.078125 -1.28125 -0.078125q-1.703125 0 -2.65625 0.734375q-0.734375 0.546875 -0.734375 1.3125q0 0.703125 0.546875 1.1875q0.5625 0.484375 1.625 0.484375q1.0 0 1.859375 -0.40625q0.875 -0.40625 1.796875 -1.28125l0 -1.71875zm11.745605 -3.65625q0 -0.265625 0.109375 -0.375q0.109375 -0.125 0.28125 -0.125q0.171875 0 0.28125 0.125q0.109375 0.109375 0.109375 0.40625l0 1.328125q0 0.28125 -0.109375 0.40625q-0.109375 0.109375 -0.28125 0.109375q-0.171875 0 -0.28125 -0.09375q-0.09375 -0.109375 -0.109375 -0.34375q-0.0625 -0.546875 -0.578125 -0.90625q-0.765625 -0.53125 -2.015625 -0.53125q-1.3125 0 -2.03125 0.53125q-0.546875 0.40625 -0.546875 0.890625q0 0.5625 0.640625 0.9375q0.453125 0.25 1.703125 0.390625q1.609375 0.171875 2.25 0.40625q0.890625 0.328125 1.328125 0.90625q0.453125 0.5625 0.453125 1.234375q0 0.984375 -0.953125 1.765625q-0.953125 0.78125 -2.8125 0.78125q-1.84375 0 -3.015625 -0.9375q0 0.3125 -0.046875 0.40625q-0.03125 0.09375 -0.125 0.15625q-0.09375 0.0625 -0.21875 0.0625q-0.171875 0 -0.28125 -0.109375q-0.109375 -0.125 -0.109375 -0.40625l0 -1.609375q0 -0.28125 0.109375 -0.390625q0.109375 -0.125 0.28125 -0.125q0.171875 0 0.28125 0.125q0.109375 0.109375 0.109375 0.296875q0 0.421875 0.21875 0.71875q0.328125 0.4375 1.03125 0.734375q0.71875 0.296875 1.75 0.296875q1.515625 0 2.25 -0.5625q0.75 -0.578125 0.75 -1.203125q0 -0.71875 -0.75 -1.15625q-0.765625 -0.4375 -2.21875 -0.578125q-1.453125 -0.15625 -2.078125 -0.390625q-0.625 -0.25 -0.984375 -0.734375q-0.359375 -0.484375 -0.359375 -1.03125q0 -1.015625 0.984375 -1.59375q0.984375 -0.59375 2.359375 -0.59375q1.609375 0 2.625 0.78125z" fill-rule="nonzero"></path><path fill="#000000" fill-opacity="0.0" d="m-10.5471945 -23.556723l487.1181 0l0 94.362206l-487.1181 0z" fill-rule="evenodd"></path><path fill="#000000" d="m23.390306 23.07078q5.6875 0.4375 9.296873 2.109375q3.609375 1.671875 5.21875 4.09375q1.609375 2.421875 1.609375 5.203127q0 3.96875 -2.125 6.765625q-2.125 2.796875 -6.093748 4.21875q-3.96875 1.421875 -9.4375 1.421875q-1.375 0 -4.703125 -0.09375q-3.328126 -0.09375 -6.703126 -0.09375q-6.59375 0 -9.84375 0.1875l0 -1.28125q2.125 -0.09375 3.09375 -0.5q0.96875024 -0.40625 1.3281252 -1.5q0.359375 -1.09375 0.359375 -3.5l0 -31.75q0 -2.40625 -0.359375 -3.5q-0.359375 -1.09375 -1.3281252 -1.5q-0.96875 -0.40625 -3.09375 -0.5l0 -1.2812501q3.21875 0.1875 9.71875 0.1875q2.5625 0 5.687501 -0.0625q3.125 -0.0625 4.34375 -0.0625q5.15625 0 8.703125 1.2656251q3.546873 1.265625 5.328123 3.53125q1.78125 2.265625 1.78125 5.265625q0 2.375 -1.375 4.656249q-1.375 2.28125 -4.265623 4.046875q-2.890625 1.765625 -7.140625 2.546875l0 0.125zm-5.0625 -0.25q4.15625 0 5.828125 -2.84375q1.671875 -2.84375 1.671875 -7.593749q0 -4.8125 -1.5 -7.171875q-1.5 -2.359375 -4.78125 -2.359375q-1.71875 0 -2.546875 0.453125q-0.828125 0.453125 -1.125001 1.59375q-0.296875 1.140625 -0.296875 3.453125l0 14.468749l2.750001 0zm-2.750001 17.281252q0 2.3125 0.328125 3.40625q0.32812595 1.09375 1.234376 1.5q0.90625 0.40625 2.84375 0.40625q8.90625 0 8.90625 -11.21875q0 -5.031252 -2.546875 -7.656252q-2.546875 -2.625 -8.078125 -2.625l-2.687501 0l0 16.187502zm37.96875 -13.000002q-0.09375 0.9375 -0.09375 3.0q0 4.250002 1.1875 7.046877q1.1875 2.796875 3.078125 4.09375q1.890625 1.296875 4.046875 1.296875q5.28125 0 8.46875 -5.125l1.125 0.375q-0.8125 2.625 -2.515625 4.890625q-1.703125 2.265625 -4.3125 3.6875q-2.609375 1.421875 -5.953125 1.421875q-4.40625 0 -7.734375 -1.875q-3.328125 -1.875 -5.1875 -5.703125q-1.859375 -3.828125 -1.859375 -9.515627q0 -5.8125 2.0 -9.796875q2.0 -3.984375 5.53125 -5.984374q3.53125 -2.0 8.15625 -2.0q12.03125 0 12.03125 14.187499l-17.96875 0zm9.90625 -1.21875q0.09375 -5.0 -1.015625 -8.3125q-1.109375 -3.312499 -3.359375 -3.312499q-2.28125 0 -3.796875 2.828124q-1.515625 2.828125 -1.859375 8.796875l10.03125 0zm25.0625 -7.03125q2.90625 -5.937499 10.5 -5.937499q2.625 0 4.296875 0.625q1.671875 0.625 2.734375 1.84375q1.0625 1.218749 1.53125 3.156249q0.46875 1.9375 0.46875 5.1875l0 17.218752q0 1.78125 0.40625 2.78125q0.40625 1.0 1.28125 1.40625q0.875 0.40625 2.40625 0.40625l0 1.34375q-6.375 -0.25 -8.4375 -0.25q-1.96875 0 -8.34375 0.25l0 -1.34375q1.3125 0 2.0625 -0.40625q0.75 -0.40625 1.078125 -1.40625q0.328125 -1.0 0.328125 -2.78125l0 -19.906252q0 -2.625 -0.859375 -3.96875q-0.859375 -1.343749 -3.109375 -1.343749q-1.75 0 -3.203125 0.96874905q-1.453125 0.96875 -2.296875 2.671875q-0.84375 1.703125 -0.84375 3.765625l0 17.812502q0 1.78125 0.34375 2.78125q0.34375 1.0 1.09375 1.40625q0.75 0.40625 2.03125 0.40625l0 1.34375q-5.875 -0.25 -7.9375 -0.25q-1.96875 0 -8.84375 0.25l0 -1.34375q1.53125 0 2.421875 -0.40625q0.890625 -0.40625 1.28125 -1.40625q0.390625 -1.0 0.390625 -2.78125l0 -20.187502q0 -2.96875 -0.90625 -4.296875q-0.90625 -1.328124 -3.1875 -1.328124l0 -1.34375q2.03125 0.1875 3.96875 0.1875q5.65625 0 9.34375 -0.875l0 5.749999zm41.1875 -1.53125q0.21875 -2.124999 0.21875 -4.874999q0 -4.375 -0.46875 -10.875q5.84375 0.1875 19.78125 0.1875q13.9375 0 19.71875 -0.1875q-0.46875 6.5 -0.46875 10.875q0 2.75 0.21875 4.874999l-1.46875 0q-1.0625 -5.343749 -2.59375 -8.453124q-1.53125 -3.109375 -3.671875 -4.46875q-2.140625 -1.359375 -5.203125 -1.359375l-1.46875 0l0 36.5625q0 2.65625 0.546875 3.875q0.546875 1.21875 1.9375 1.65625q1.390625 0.4375 4.359375 0.46875l0 1.28125q-8.0625 -0.1875 -12.15625 -0.1875q-4.03125 0 -11.71875 0.1875l0 -1.28125q3.0 -0.03125 4.390625 -0.46875q1.390625 -0.4375 1.921875 -1.65625q0.53125 -1.21875 0.53125 -3.875l0 -36.5625l-1.40625 0q-3.09375 0 -5.234375 1.34375q-2.140625 1.34375 -3.671875 4.453125q-1.53125 3.109375 -2.625 8.484374l-1.46875 0zm74.3125 22.593752q0 2.96875 0.921875 4.296875q0.921875 1.328125 3.171875 1.328125l0 1.34375q-2.0 -0.1875 -3.96875 -0.1875q-5.625 0 -9.34375 0.90625l0 -5.78125q-2.90625 5.96875 -10.3125 5.96875q-4.78125 0 -6.96875 -2.5q-1.0625 -1.1875 -1.515625 -3.15625q-0.453125 -1.96875 -0.453125 -5.15625l0 -16.218752q0 -2.9375 -0.921875 -4.28125q-0.921875 -1.343749 -3.171875 -1.343749l0 -1.34375q2.03125 0.1875 3.96875 0.1875q5.59375 0 9.34375 -0.875l0 26.5q0 2.65625 0.796875 4.015625q0.796875 1.359375 3.015625 1.359375q1.6875 0 3.109375 -0.984375q1.421875 -0.984375 2.265625 -2.6875q0.84375 -1.703125 0.84375 -3.765625l0 -16.781252q0 -2.9375 -0.921875 -4.28125q-0.921875 -1.343749 -3.171875 -1.343749l0 -1.34375q2.03125 0.1875 3.96875 0.1875q5.59375 0 9.34375 -0.875l0 26.8125zm19.96875 -20.875002q1.34375 -3.0 3.921875 -4.562499q2.578125 -1.5625 5.984375 -1.5625q3.3125 0 5.90625 1.796875q2.59375 1.796874 4.078125 5.374999q1.484375 3.578125 1.484375 8.734375q0 6.125002 -1.828125 10.390627q-1.828125 4.265625 -5.15625 6.421875q-3.328125 2.15625 -7.859375 2.15625q-4.125 0 -6.53125 -2.03125l0 6.375q0 2.8125 1.421875 3.90625q1.421875 1.09375 4.328125 1.09375l0 1.34375q-0.9375 -0.03125 -4.25 -0.15625q-3.3125 -0.125 -6.5 -0.125q-2.4375 0 -4.953125 0.125q-2.515625 0.125 -3.109375 0.15625l0 -1.34375q1.4375 0 2.25 -0.390625q0.8125 -0.390625 1.203125 -1.34375q0.390625 -0.953125 0.390625 -2.640625l0 -32.0q0 -2.9375 -0.921875 -4.28125q-0.921875 -1.343749 -3.171875 -1.343749l0 -1.34375q2.03125 0.1875 3.96875 0.1875q5.59375 0 9.34375 -0.875l0 5.937499zm0 25.312502q1.4375 1.6875 4.03125 1.6875q4.09375 0 5.890625 -4.078125q1.796875 -4.078125 1.796875 -11.859377q0 -7.78125 -1.4375 -11.109375q-1.4375 -3.328124 -4.125 -3.328124q-2.1875 0 -3.90625 1.468749q-1.71875 1.46875 -2.25 4.0625l0 23.156252zm38.406265 -25.312502q1.34375 -3.0 3.921875 -4.562499q2.578125 -1.5625 5.984375 -1.5625q3.3125 0 5.90625 1.796875q2.59375 1.796874 4.078125 5.374999q1.484375 3.578125 1.484375 8.734375q0 6.125002 -1.828125 10.390627q-1.828125 4.265625 -5.15625 6.421875q-3.328125 2.15625 -7.859375 2.15625q-4.125 0 -6.53125 -2.03125l0 6.375q0 2.8125 1.421875 3.90625q1.421875 1.09375 4.328125 1.09375l0 1.34375q-0.9375 -0.03125 -4.25 -0.15625q-3.3125 -0.125 -6.5 -0.125q-2.4375153 0 -4.9531403 0.125q-2.515625 0.125 -3.109375 0.15625l0 -1.34375q1.4375 0 2.25 -0.390625q0.8125 -0.390625 1.203125 -1.34375q0.390625 -0.953125 0.390625 -2.640625l0 -32.0q0 -2.9375 -0.921875 -4.28125q-0.921875 -1.343749 -3.171875 -1.343749l0 -1.34375q2.03125 0.1875 3.96875 0.1875q5.5937653 0 9.343765 -0.875l0 5.937499zm0 25.312502q1.4375 1.6875 4.03125 1.6875q4.09375 0 5.890625 -4.078125q1.796875 -4.078125 1.796875 -11.859377q0 -7.78125 -1.4375 -11.109375q-1.4375 -3.328124 -4.125 -3.328124q-2.1875 0 -3.90625 1.468749q-1.71875 1.46875 -2.25 4.0625l0 23.156252zm35.9375 -17.250002q-0.09375 0.9375 -0.09375 3.0q0 4.250002 1.1875 7.046877q1.1875 2.796875 3.078125 4.09375q1.890625 1.296875 4.046875 1.296875q5.28125 0 8.46875 -5.125l1.125 0.375q-0.8125 2.625 -2.515625 4.890625q-1.703125 2.265625 -4.3125 3.6875q-2.609375 1.421875 -5.953125 1.421875q-4.40625 0 -7.734375 -1.875q-3.328125 -1.875 -5.1875 -5.703125q-1.859375 -3.828125 -1.859375 -9.515627q0 -5.8125 2.0 -9.796875q2.0 -3.984375 5.53125 -5.984374q3.53125 -2.0 8.15625 -2.0q12.03125 0 12.03125 14.187499l-17.96875 0zm9.90625 -1.21875q0.09375 -5.0 -1.015625 -8.3125q-1.109375 -3.312499 -3.359375 -3.312499q-2.28125 0 -3.796875 2.828124q-1.515625 2.828125 -1.859375 8.796875l10.03125 0zm25.0625 -6.84375q1.21875 -2.71875 3.515625 -4.421874q2.296875 -1.703125 5.203125 -1.703125q1.9375 0 3.25 0.84375q1.3125 0.84375 1.9375 2.171875q0.625 1.328124 0.625 2.859374q0 2.375 -1.375 3.875q-1.375 1.5 -3.625 1.5q-2.1875 0 -3.453125 -1.109375q-1.265625 -1.109375 -1.265625 -2.984375q0 -3.0625 2.8125 -4.999999q-0.40625 -0.09375 -0.78125 -0.09375q-0.4375 0 -1.0 0.15625q-1.625 0.25 -2.96875 1.546874q-1.34375 1.296875 -2.109375 3.109375q-0.765625 1.8125 -0.765625 3.53125l0 16.968752q0 2.96875 1.4375 4.109375q1.4375 1.140625 4.59375 1.140625l0 1.34375q-8.0 -0.25 -10.1875 -0.25q-2.03125 0 -9.15625 0.25l0 -1.34375q1.53125 0 2.421875 -0.40625q0.890625 -0.40625 1.28125 -1.40625q0.390625 -1.0 0.390625 -2.78125l0 -20.187502q0 -2.96875 -0.90625 -4.296875q-0.90625 -1.328124 -3.1875 -1.328124l0 -1.34375q2.03125 0.1875 3.96875 0.1875q5.65625 0 9.34375 -0.875l0 5.937499z" fill-rule="nonzero"></path><path fill="#000000" fill-opacity="0.0" d="m283.8806 45.356663l266.39374 0l0 44.157482l-266.39374 0z" fill-rule="evenodd"></path><path fill="#000000" d="m296.365 64.432915q0.421875 -0.9687538 1.203125 -1.4843788q0.796875 -0.53125 1.796875 -0.53125q0.984375 0 1.765625 0.53125q0.796875 0.53125 1.25 1.5781288q0.453125 1.046875 0.453125 2.515625q0 1.421875 -0.453125 2.6875q-0.453125 1.25 -1.421875 2.03125q-0.96875 0.78125 -2.40625 0.78125q-0.703125 0 -1.28125 -0.28125q-0.578125 -0.28125 -0.90625 -0.734375l0 2.390625q0 0.75 0.453125 1.046875q0.453125 0.296875 1.34375 0.296875l0 0.390625q-0.234375 0 -1.0625 -0.046875q-0.8125 -0.03125 -1.625 -0.03125q-0.59375 0 -1.21875 0.03125q-0.625 0.046875 -0.796875 0.046875l0 -0.390625q0.6875 0 0.953125 -0.25q0.28125 -0.25 0.28125 -0.90625l0 -9.390625q0 -0.8750038 -0.3125 -1.2656288q-0.3125 -0.390625 -1.109375 -0.390625l0 -0.390625q0.59375 0.046875 1.15625 0.046875q1.1875 0 1.9375 -0.25l0 1.9687538zm0 6.484375q0.28125 0.546875 0.78125 0.875q0.5 0.328125 1.203125 0.328125q2.671875 0 2.671875 -4.828125q0 -4.328129 -2.171875 -4.328129q-0.84375 0 -1.515625 0.609375q-0.671875 0.6093788 -0.96875 1.7500038l0 5.59375zm10.9809265 -6.125q0.203125 -0.578125 0.59375 -1.1250038q0.40625 -0.546875 0.953125 -0.890625q0.546875 -0.359375 1.15625 -0.359375q0.484375 0 0.875 0.203125q0.390625 0.1875 0.609375 0.53125q0.21875 0.328125 0.21875 0.71875q0 0.5000038 -0.296875 0.8437538q-0.296875 0.34375 -0.765625 0.34375q-0.421875 0 -0.71875 -0.265625q-0.28125 -0.265625 -0.28125 -0.703125q0 -0.6093788 0.640625 -1.0156288q-0.125 -0.171875 -0.390625 -0.171875q-0.734375 0 -1.328125 0.5625q-0.59375 0.5625038 -0.9375 1.3906288q-0.328125 0.828125 -0.328125 1.546875l0 3.953125q0 0.859375 0.484375 1.203125q0.5 0.328125 1.484375 0.328125l0 0.390625q-2.296875 -0.078125 -2.875 -0.078125q-0.484375 0 -2.203125 0.078125l0 -0.390625q0.53125 0 0.828125 -0.109375q0.3125 -0.125 0.453125 -0.421875q0.140625 -0.296875 0.140625 -0.8125l0 -5.828125q0 -0.8750038 -0.3125 -1.2656288q-0.3125 -0.390625 -1.109375 -0.390625l0 -0.390625q0.59375 0.046875 1.15625 0.046875q1.1875 0 1.953125 -0.25l0 2.3281288zm9.767517 -2.3750038q1.234375 0 2.1875 0.53125q0.953125 0.53125 1.5 1.6718788q0.546875 1.140625 0.546875 2.859375q0 1.734375 -0.546875 2.875q-0.546875 1.125 -1.5 1.65625q-0.953125 0.53125 -2.1875 0.53125q-1.234375 0 -2.1875 -0.53125q-0.9375 -0.53125 -1.5 -1.65625q-0.546875 -1.140625 -0.546875 -2.875q0 -1.71875 0.546875 -2.859375q0.5625 -1.1406288 1.5 -1.6718788q0.953125 -0.53125 2.1875 -0.53125zm0 0.375q-1.125 0 -1.78125 1.140625q-0.640625 1.1406288 -0.640625 3.5468788q0 2.40625 0.640625 3.546875q0.65625 1.140625 1.78125 1.140625q1.125 0 1.765625 -1.140625q0.65625 -1.140625 0.65625 -3.546875q0 -2.40625 -0.65625 -3.5468788q-0.640625 -1.140625 -1.765625 -1.140625zm7.6114807 -4.6875q0.3125 0 0.59375 0.15625q0.28125 0.15625 0.4375 0.4375q0.15625 0.28125 0.15625 0.59375q0 0.328125 -0.15625 0.609375q-0.15625 0.265625 -0.4375 0.4375q-0.28125 0.15625 -0.59375 0.15625q-0.328125 0 -0.609375 -0.15625q-0.265625 -0.171875 -0.4375 -0.4375q-0.15625 -0.28125 -0.15625 -0.609375q0 -0.3125 0.15625 -0.59375q0.171875 -0.28125 0.4375 -0.4375q0.28125 -0.15625 0.609375 -0.15625zm1.015625 12.015629q0 1.53125 -0.203125 2.65625q-0.203125 1.140625 -0.78125 1.875q-0.421875 0.546875 -1.03125 0.828125q-0.609375 0.296875 -1.21875 0.296875q-0.65625 0 -1.046875 -0.28125q-0.40625 -0.296875 -0.40625 -0.84375q0 -0.4375 0.265625 -0.703125q0.265625 -0.265625 0.6875 -0.265625q0.453125 0 0.71875 0.21875q0.265625 0.234375 0.265625 0.6875q0 0.640625 -0.71875 0.890625q0.109375 0.015625 0.328125 0.015625q0.640625 0 1.046875 -0.421875q0.421875 -0.53125 0.421875 -1.578125l0 -8.78125q0 -0.8750038 -0.3125 -1.2656288q-0.3125 -0.390625 -1.109375 -0.390625l0 -0.390625q0.59375 0.046875 1.15625 0.046875q1.1875 0 1.9375 -0.25l0 7.656254zm10.10788 -0.078125q-0.21875 0.65625 -0.703125 1.21875q-0.484375 0.5625 -1.203125 0.921875q-0.703125 0.359375 -1.59375 0.359375q-1.328125 0 -2.296875 -0.609375q-0.96875 -0.609375 -1.484375 -1.703125q-0.5 -1.09375 -0.5 -2.53125q0 -1.609375 0.515625 -2.796875q0.515625 -1.2031288 1.46875 -1.8437538q0.953125 -0.640625 2.234375 -0.640625q1.671875 0 2.578125 1.015625q0.90625 1.0156288 0.90625 3.0781288l-5.828125 0q-0.0625 0.484375 -0.0625 1.1875q0 1.234375 0.40625 2.15625q0.40625 0.921875 1.0625 1.421875q0.65625 0.484375 1.375 0.484375q1.875 0 2.75 -1.875l0.375 0.15625zm-1.875 -3.890625q0.046875 -0.921875 -0.15625 -1.6875q-0.1875 -0.7812538 -0.59375 -1.2343788q-0.40625 -0.46875 -1.015625 -0.46875q-0.578125 0 -1.0625 0.375q-0.46875 0.375 -0.8125 1.1406288q-0.328125 0.75 -0.421875 1.875l4.0625 0zm11.093689 3.796875q-0.21875 0.65625 -0.65625 1.25q-0.4375 0.59375 -1.140625 0.96875q-0.703125 0.375 -1.640625 0.375q-1.171875 0 -2.109375 -0.59375q-0.9375 -0.609375 -1.484375 -1.71875q-0.53125 -1.125 -0.53125 -2.640625q0 -1.5 0.546875 -2.671875q0.546875 -1.1875038 1.53125 -1.8437538q1.0 -0.65625 2.265625 -0.65625q1.25 0 2.171875 0.578125q0.875 0.59375 0.875 1.4531288q0 0.484375 -0.28125 0.765625q-0.28125 0.28125 -0.703125 0.28125q-0.4375 0 -0.734375 -0.25q-0.296875 -0.25 -0.296875 -0.6875q0 -0.40625 0.21875 -0.6718788q0.21875 -0.265625 0.5625 -0.359375q-0.1875 -0.34375 -0.671875 -0.5625q-0.484375 -0.21875 -1.0 -0.21875q-0.6875 0 -1.296875 0.4375q-0.59375 0.4375 -0.984375 1.4531288q-0.390625 1.015625 -0.390625 2.671875q0 2.328125 0.734375 3.390625q0.75 1.046875 1.953125 1.046875q0.796875 0 1.515625 -0.46875q0.71875 -0.46875 1.1875 -1.453125l0.359375 0.125zm6.95459 -7.265629l0 0.375l-2.75 0l0 7.218754q0 0.859375 0.296875 1.234375q0.296875 0.359375 0.890625 0.359375q0.578125 0 0.984375 -0.46875q0.421875 -0.46875 0.703125 -1.53125l0.359375 0.09375q-0.453125 2.578125 -2.421875 2.578125q-0.625 0 -1.03125 -0.15625q-0.40625 -0.140625 -0.734375 -0.46875q-0.390625 -0.40625 -0.5625 -1.0q-0.15625 -0.59375 -0.15625 -1.609375l0 -6.250004l-1.796875 0l0 -0.375l1.796875 0l0 -2.84375q1.046875 -0.03125 1.671875 -0.265625l0 3.109375l2.75 0zm1.8231201 6.000004q0.140625 1.15625 0.390625 1.90625q0.25 0.734375 0.78125 1.15625q0.53125 0.421875 1.421875 0.421875q0.40625 0 0.78125 -0.171875q0.390625 -0.1875 0.625 -0.578125q0.25 -0.390625 0.25 -1.03125q0 -0.5 -0.265625 -0.90625q-0.25 -0.40625 -0.671875 -0.734375q-0.421875 -0.328125 -1.171875 -0.796875q-0.921875 -0.578125 -1.40625 -0.953125q-0.484375 -0.375 -0.828125 -0.90625q-0.328125 -0.546875 -0.328125 -1.265625q0 -0.796875 0.359375 -1.3437538q0.375 -0.546875 1.0 -0.796875q0.625 -0.265625 1.390625 -0.265625q0.65625 0 1.171875 0.203125q0.53125 0.203125 0.859375 0.46875q0.203125 0.15625 0.328125 0.15625q0.328125 0 0.421875 -0.8125l0.421875 0q-0.0625 0.90625 -0.0625 3.1718788l-0.4375 0q-0.1875 -1.234375 -0.78125 -2.0312538q-0.59375 -0.8125 -1.75 -0.8125q-0.671875 0 -1.109375 0.390625q-0.421875 0.375 -0.421875 1.0468788q0 0.640625 0.4375 1.078125q0.4375 0.4375 1.0625 0.828125q0.625 0.390625 0.890625 0.5625q0.859375 0.546875 1.375 0.984375q0.53125 0.4375 0.84375 1.0q0.328125 0.5625 0.328125 1.28125q0 0.828125 -0.4375 1.421875q-0.421875 0.578125 -1.15625 0.890625q-0.71875 0.296875 -1.59375 0.296875q-0.828125 0 -1.46875 -0.265625q-0.375 -0.1875 -0.765625 -0.5q-0.078125 -0.078125 -0.171875 -0.078125q-0.28125 0 -0.390625 0.703125l-0.421875 0q0.078125 -1.0625 0.078125 -3.71875l0.421875 0zm17.40033 -4.015625q0 -1.0937538 -0.453125 -1.4843788q-0.453125 -0.390625 -1.28125 -0.390625q-1.3125 0 -1.84375 0.65625q0.375 0.09375 0.625 0.40625q0.25 0.2968788 0.25 0.7343788q0 0.46875 -0.296875 0.75q-0.296875 0.265625 -0.796875 0.265625q-0.484375 0 -0.75 -0.3125q-0.265625 -0.328125 -0.265625 -0.84375q0 -0.7343788 0.875 -1.3437538q0.453125 -0.296875 1.125 -0.484375q0.671875 -0.203125 1.484375 -0.203125q0.765625 0 1.34375 0.1875q0.59375 0.1875 0.921875 0.5q0.421875 0.4375 0.578125 1.0312538q0.171875 0.578125 0.171875 1.59375l0 5.1875q0 0.453125 0.125 0.671875q0.140625 0.203125 0.4375 0.203125q0.234375 0 0.421875 -0.09375q0.203125 -0.109375 0.421875 -0.296875l0.21875 0.3125q-0.328125 0.25 -0.546875 0.390625q-0.21875 0.140625 -0.515625 0.21875q-0.28125 0.078125 -0.65625 0.078125q-0.890625 0 -1.25 -0.453125q-0.34375 -0.453125 -0.34375 -1.203125q-0.546875 0.90625 -1.3125 1.28125q-0.765625 0.375 -1.5625 0.375q-0.640625 0 -1.1875 -0.21875q-0.53125 -0.21875 -0.859375 -0.6875q-0.3125 -0.46875 -0.3125 -1.171875q0 -0.71875 0.34375 -1.21875q0.34375 -0.5 0.96875 -0.875q0.625 -0.375 1.6875 -0.828125q0.1875 -0.078125 0.890625 -0.359375q0.71875 -0.296875 1.03125 -0.578125q0.3125 -0.296875 0.3125 -0.640625l0 -1.15625zm0 1.921875q-0.140625 0.203125 -0.46875 0.390625q-0.3125 0.171875 -1.3125 0.671875q-0.546875 0.25 -0.921875 0.53125q-0.375 0.265625 -0.640625 0.71875q-0.25 0.453125 -0.25 1.109375q0 0.8125 0.40625 1.234375q0.40625 0.40625 1.078125 0.40625q1.234375 0 2.109375 -1.40625l0 -3.65625zm6.963562 -1.921875q0.453125 -1.1875038 1.28125 -1.7187538q0.84375 -0.53125 1.890625 -0.53125q1.296875 0 1.984375 0.6875q0.34375 0.390625 0.484375 0.9531288q0.15625 0.5625 0.15625 1.5l0 4.984375q0 0.515625 0.140625 0.8125q0.140625 0.296875 0.4375 0.421875q0.3125 0.109375 0.84375 0.109375l0 0.390625q-1.71875 -0.078125 -2.234375 -0.078125q-0.53125 0 -2.09375 0.078125l0 -0.390625q0.46875 0 0.71875 -0.109375q0.265625 -0.125 0.390625 -0.421875q0.125 -0.296875 0.125 -0.8125l0 -5.390625q0 -0.671875 -0.109375 -1.125q-0.109375 -0.4531288 -0.4375 -0.7343788q-0.328125 -0.296875 -0.96875 -0.296875q-0.765625 0 -1.359375 0.453125q-0.59375 0.453125 -0.921875 1.2343788q-0.328125 0.765625 -0.328125 1.71875l0 4.140625q0 0.515625 0.109375 0.8125q0.125 0.296875 0.390625 0.421875q0.265625 0.109375 0.734375 0.109375l0 0.390625q-1.5625 -0.078125 -2.09375 -0.078125q-0.53125 0 -2.25 0.078125l0 -0.390625q0.53125 0 0.828125 -0.109375q0.3125 -0.125 0.453125 -0.421875q0.140625 -0.296875 0.140625 -0.8125l0 -5.828125q0 -0.8750038 -0.3125 -1.2656288q-0.3125 -0.390625 -1.109375 -0.390625l0 -0.390625q0.59375 0.046875 1.15625 0.046875q1.1875 0 1.953125 -0.25l0 2.2031288zm16.54715 5.578125q0 0.859375 0.3125 1.25q0.3125 0.390625 1.109375 0.390625l0 0.390625q-0.59375 -0.046875 -1.15625 -0.046875q-1.203125 0 -1.953125 0.25l0 -1.65625q-0.34375 0.84375 -1.015625 1.28125q-0.65625 0.4375 -1.625 0.4375q-1.1875 0 -2.046875 -0.5625q-0.859375 -0.5625 -1.3125 -1.6875q-0.453125 -1.140625 -0.453125 -2.8125q0 -1.625 0.5625 -2.765625q0.578125 -1.1562538 1.53125 -1.7187538q0.96875 -0.578125 2.125 -0.578125q0.71875 0 1.3125 0.265625q0.59375 0.265625 0.921875 0.828125l0 -3.625q0 -0.859375 -0.3125 -1.25q-0.3125 -0.390625 -1.09375 -0.390625l0 -0.390625q0.578125 0.0625 1.15625 0.0625q1.203125 0 1.9375 -0.265625l0 12.593754zm-1.6875 -5.96875q-0.515625 -1.4375038 -2.078125 -1.4375038q-0.75 0 -1.328125 0.515625q-0.578125 0.515625 -0.90625 1.5625038q-0.328125 1.03125 -0.328125 2.5625q0 2.25 0.640625 3.375q0.640625 1.125 1.890625 1.125q0.484375 0 0.90625 -0.25q0.4375 -0.25 0.75 -0.734375q0.328125 -0.484375 0.453125 -1.171875l0 -5.546875zm10.78302 -6.281254q0.328125 0 0.59375 0.171875q0.28125 0.15625 0.4375 0.4375q0.171875 0.265625 0.171875 0.59375q0 0.3125 -0.171875 0.59375q-0.15625 0.28125 -0.4375 0.4375q-0.265625 0.15625 -0.59375 0.15625q-0.3125 0 -0.59375 -0.15625q-0.28125 -0.15625 -0.4375 -0.4375q-0.15625 -0.28125 -0.15625 -0.59375q0 -0.328125 0.15625 -0.59375q0.15625 -0.28125 0.4375 -0.4375q0.28125 -0.171875 0.59375 -0.171875zm0.984375 12.546879q0 0.515625 0.140625 0.8125q0.140625 0.296875 0.4375 0.421875q0.3125 0.109375 0.84375 0.109375l0 0.390625q-1.71875 -0.078125 -2.265625 -0.078125q-0.546875 0 -2.265625 0.078125l0 -0.390625q0.53125 0 0.828125 -0.109375q0.3125 -0.125 0.453125 -0.421875q0.140625 -0.296875 0.140625 -0.8125l0 -5.828125q0 -0.8750038 -0.3125 -1.2656288q-0.3125 -0.390625 -1.109375 -0.390625l0 -0.390625q0.59375 0.046875 1.15625 0.046875q1.1875 0 1.953125 -0.25l0 8.078129zm10.871948 -0.296875q0 0.859375 0.3125 1.25q0.3125 0.390625 1.109375 0.390625l0 0.390625q-0.59375 -0.046875 -1.15625 -0.046875q-1.203125 0 -1.953125 0.25l0 -1.65625q-0.34375 0.84375 -1.015625 1.28125q-0.65625 0.4375 -1.625 0.4375q-1.1875 0 -2.046875 -0.5625q-0.859375 -0.5625 -1.3125 -1.6875q-0.453125 -1.140625 -0.453125 -2.8125q0 -1.625 0.5625 -2.765625q0.578125 -1.1562538 1.53125 -1.7187538q0.96875 -0.578125 2.125 -0.578125q0.71875 0 1.3125 0.265625q0.59375 0.265625 0.921875 0.828125l0 -3.625q0 -0.859375 -0.3125 -1.25q-0.3125 -0.390625 -1.09375 -0.390625l0 -0.390625q0.578125 0.0625 1.15625 0.0625q1.203125 0 1.9375 -0.265625l0 12.593754zm-1.6875 -5.96875q-0.515625 -1.4375038 -2.078125 -1.4375038q-0.75 0 -1.328125 0.515625q-0.578125 0.515625 -0.90625 1.5625038q-0.328125 1.03125 -0.328125 2.5625q0 2.25 0.640625 3.375q0.640625 1.125 1.890625 1.125q0.484375 0 0.90625 -0.25q0.4375 -0.25 0.75 -0.734375q0.328125 -0.484375 0.453125 -1.171875l0 -5.546875zm12.1215515 5.765625q-0.21875 0.65625 -0.703125 1.21875q-0.484375 0.5625 -1.203125 0.921875q-0.703125 0.359375 -1.59375 0.359375q-1.328125 0 -2.296875 -0.609375q-0.96875 -0.609375 -1.484375 -1.703125q-0.5 -1.09375 -0.5 -2.53125q0 -1.609375 0.515625 -2.796875q0.515625 -1.2031288 1.46875 -1.8437538q0.953125 -0.640625 2.234375 -0.640625q1.671875 0 2.578125 1.015625q0.90625 1.0156288 0.90625 3.0781288l-5.828125 0q-0.0625 0.484375 -0.0625 1.1875q0 1.234375 0.40625 2.15625q0.40625 0.921875 1.0625 1.421875q0.65625 0.484375 1.375 0.484375q1.875 0 2.75 -1.875l0.375 0.15625zm-1.875 -3.890625q0.046875 -0.921875 -0.15625 -1.6875q-0.1875 -0.7812538 -0.59375 -1.2343788q-0.40625 -0.46875 -1.015625 -0.46875q-0.578125 0 -1.0625 0.375q-0.46875 0.375 -0.8125 1.1406288q-0.328125 0.75 -0.421875 1.875l4.0625 0zm8.640564 -1.484375q0 -1.0937538 -0.453125 -1.4843788q-0.453125 -0.390625 -1.28125 -0.390625q-1.3125 0 -1.84375 0.65625q0.375 0.09375 0.625 0.40625q0.25 0.2968788 0.25 0.7343788q0 0.46875 -0.296875 0.75q-0.296875 0.265625 -0.796875 0.265625q-0.484375 0 -0.75 -0.3125q-0.265625 -0.328125 -0.265625 -0.84375q0 -0.7343788 0.875 -1.3437538q0.453125 -0.296875 1.125 -0.484375q0.671875 -0.203125 1.484375 -0.203125q0.765625 0 1.34375 0.1875q0.59375 0.1875 0.921875 0.5q0.421875 0.4375 0.578125 1.0312538q0.171875 0.578125 0.171875 1.59375l0 5.1875q0 0.453125 0.125 0.671875q0.140625 0.203125 0.4375 0.203125q0.234375 0 0.421875 -0.09375q0.203125 -0.109375 0.421875 -0.296875l0.21875 0.3125q-0.328125 0.25 -0.546875 0.390625q-0.21875 0.140625 -0.515625 0.21875q-0.28125 0.078125 -0.65625 0.078125q-0.890625 0 -1.25 -0.453125q-0.34375 -0.453125 -0.34375 -1.203125q-0.546875 0.90625 -1.3125 1.28125q-0.765625 0.375 -1.5625 0.375q-0.640625 0 -1.1875 -0.21875q-0.53125 -0.21875 -0.859375 -0.6875q-0.3125 -0.46875 -0.3125 -1.171875q0 -0.71875 0.34375 -1.21875q0.34375 -0.5 0.96875 -0.875q0.625 -0.375 1.6875 -0.828125q0.1875 -0.078125 0.890625 -0.359375q0.71875 -0.296875 1.03125 -0.578125q0.3125 -0.296875 0.3125 -0.640625l0 -1.15625zm0 1.921875q-0.140625 0.203125 -0.46875 0.390625q-0.3125 0.171875 -1.3125 0.671875q-0.546875 0.25 -0.921875 0.53125q-0.375 0.265625 -0.640625 0.71875q-0.25 0.453125 -0.25 1.109375q0 0.8125 0.40625 1.234375q0.40625 0.40625 1.078125 0.40625q1.234375 0 2.109375 -1.40625l0 -3.65625zm4.854187 2.09375q0.140625 1.15625 0.390625 1.90625q0.25 0.734375 0.78125 1.15625q0.53125 0.421875 1.421875 0.421875q0.40625 0 0.78125 -0.171875q0.390625 -0.1875 0.625 -0.578125q0.25 -0.390625 0.25 -1.03125q0 -0.5 -0.265625 -0.90625q-0.25 -0.40625 -0.671875 -0.734375q-0.421875 -0.328125 -1.171875 -0.796875q-0.921875 -0.578125 -1.40625 -0.953125q-0.484375 -0.375 -0.828125 -0.90625q-0.328125 -0.546875 -0.328125 -1.265625q0 -0.796875 0.359375 -1.3437538q0.375 -0.546875 1.0 -0.796875q0.625 -0.265625 1.390625 -0.265625q0.65625 0 1.171875 0.203125q0.53125 0.203125 0.859375 0.46875q0.203125 0.15625 0.328125 0.15625q0.328125 0 0.421875 -0.8125l0.421875 0q-0.0625 0.90625 -0.0625 3.1718788l-0.4375 0q-0.1875 -1.234375 -0.78125 -2.0312538q-0.59375 -0.8125 -1.75 -0.8125q-0.671875 0 -1.109375 0.390625q-0.421875 0.375 -0.421875 1.0468788q0 0.640625 0.4375 1.078125q0.4375 0.4375 1.0625 0.828125q0.625 0.390625 0.890625 0.5625q0.859375 0.546875 1.375 0.984375q0.53125 0.4375 0.84375 1.0q0.328125 0.5625 0.328125 1.28125q0 0.828125 -0.4375 1.421875q-0.421875 0.578125 -1.15625 0.890625q-0.71875 0.296875 -1.59375 0.296875q-0.828125 0 -1.46875 -0.265625q-0.375 -0.1875 -0.765625 -0.5q-0.078125 -0.078125 -0.171875 -0.078125q-0.28125 0 -0.390625 0.703125l-0.421875 0q0.078125 -1.0625 0.078125 -3.71875l0.421875 0z" fill-rule="nonzero"></path></g></svg>

